<svg width="83" height="30" viewBox="0 0 83 30" fill="none" xmlns="http://www.w3.org/2000/svg">
<path fill-rule="evenodd" clip-rule="evenodd" d="M3.15126 26.8067C5.28013 28.9356 7.92719 30 11.0924 30C13.1373 30 15 29.5098 16.6807 28.5294C18.0032 27.7359 19.0916 26.7429 19.9458 25.5504C20.2688 25.9857 20.6288 26.4045 21.0258 26.8067C23.1826 28.9356 25.8157 30 28.925 30C30.1801 30 31.3576 29.8266 32.4575 29.4797L34.4126 23.4626L33.3474 22.6887C33.2387 22.8186 33.1231 22.9447 33.0006 23.0672C31.9082 24.1597 30.5496 24.7059 28.925 24.7059C27.3003 24.7059 25.9418 24.1597 24.8493 23.0672C23.7849 21.9748 23.2527 20.5882 23.2527 18.9076C23.2527 17.2269 23.7849 15.8403 24.8493 14.7479C25.9418 13.6555 27.3003 13.1092 28.925 13.1092C30.5496 13.1092 31.9082 13.6555 33.0006 14.7479C33.9082 15.6555 34.4387 16.7661 34.5923 18.0796H36.1616L38.0045 12.4077C37.6555 11.9351 37.262 11.4826 36.8241 11.0504C34.6673 8.89357 32.0342 7.81513 28.925 7.81513C25.8157 7.81513 23.1826 8.89357 21.0258 11.0504C20.6276 11.4486 20.2666 11.864 19.9429 12.2965C19.1172 11.0763 18.0298 10.0727 16.6807 9.28571C15 8.30534 13.1373 7.81513 11.0924 7.81513C7.92719 7.81513 5.28013 8.87954 3.15126 11.0084C1.05042 13.1373 0 15.7703 0 18.9076C0 22.0448 1.05042 24.6779 3.15126 26.8067ZM18.7911 14.2385L15.8403 15.9664C15.4202 15.098 14.7759 14.4118 13.9076 13.9076C13.0672 13.4034 12.1148 13.1513 11.0504 13.1513C9.42576 13.1513 8.08122 13.6975 7.01681 14.7899C5.9524 15.8543 5.42017 17.2269 5.42017 18.9076C5.42017 20.5602 5.9524 21.9328 7.01681 23.0252C8.08122 24.0896 9.42576 24.6218 11.0504 24.6218C12.1429 24.6218 13.1092 24.3837 13.9496 23.9076C14.8179 23.4034 15.4622 22.7171 15.8824 21.8487L18.7444 23.4842C18.1365 22.0947 17.8325 20.5691 17.8325 18.9076C17.8325 17.2041 18.1521 15.6477 18.7911 14.2385ZM45.5214 29.466C46.5424 29.822 47.6315 30 48.7882 30C51.7294 30 53.9983 28.9776 55.595 26.9328V29.4118H61.0151V21.8656C61.4777 23.774 62.4156 25.435 63.8294 26.8487C65.9303 28.9496 68.7172 30 72.1908 30C76.2244 30 79.2777 28.5014 81.3504 25.5042L76.9807 22.9832C75.9164 24.3837 74.3475 25.084 72.2748 25.084C69.0534 25.084 67.0786 23.7675 66.3504 21.1345H82.1908C82.3307 20.3501 82.4009 19.6079 82.4009 18.9076C82.4009 15.7703 81.3924 13.1373 79.3756 11.0084C77.387 8.87954 74.8517 7.81513 71.7706 7.81513C68.5214 7.81513 65.8601 8.87954 63.7874 11.0084C62.3971 12.4175 61.4731 14.066 61.0151 15.9539V0H55.595V10.8824C53.9983 8.83752 51.7294 7.81513 48.7882 7.81513C45.9593 7.81513 43.5361 8.89357 41.5195 11.0504C40.9845 11.6231 40.5215 12.2312 40.1305 12.8747L41.8216 18.0796H44.0004C44.15 16.7158 44.6819 15.5773 45.595 14.6639C46.7156 13.5434 48.116 12.9832 49.7966 12.9832C51.4773 12.9832 52.8639 13.5434 53.9563 14.6639C55.0487 15.7563 55.595 17.1709 55.595 18.9076C55.595 20.6442 55.0487 22.0728 53.9563 23.1933C52.8639 24.2857 51.4773 24.8319 49.7966 24.8319C48.116 24.8319 46.7156 24.2857 45.595 23.1933C45.3643 22.9565 45.158 22.706 44.9756 22.4417L43.5706 23.4626L45.5214 29.466ZM76.9807 16.9328H66.2664C66.5744 15.5882 67.2046 14.5518 68.1572 13.8235C69.1097 13.0672 70.3139 12.6891 71.7706 12.6891C73.003 12.6891 74.0954 13.0392 75.0479 13.7395C76.0282 14.4398 76.6727 15.5042 76.9807 16.9328Z" fill="black"/>
<path d="M38.9916 12.605L41.1141 19.1374H47.9828L42.4261 23.1746L44.5483 29.707L38.9916 25.6698L33.4348 29.707L35.5573 23.1746L30.0005 19.1374H36.8691L38.9916 12.605Z" fill="black"/>
</svg>
